<?xml version="1.0" encoding="UTF-8" standalone="no"?>
<!-- Created with Inkscape (http://www.inkscape.org/) -->

<svg
   xmlns:osb="http://www.openswatchbook.org/uri/2009/osb"
   xmlns:dc="http://purl.org/dc/elements/1.1/"
   xmlns:cc="http://creativecommons.org/ns#"
   xmlns:rdf="http://www.w3.org/1999/02/22-rdf-syntax-ns#"
   xmlns:svg="http://www.w3.org/2000/svg"
   xmlns="http://www.w3.org/2000/svg"
   xmlns:sodipodi="http://sodipodi.sourceforge.net/DTD/sodipodi-0.dtd"
   xmlns:inkscape="http://www.inkscape.org/namespaces/inkscape"
   width="1500"
   height="1500"
   viewBox="0 0 396.87501 396.87501"
   version="1.1"
   id="svg8"
   inkscape:version="0.92.1 r15371"
   sodipodi:docname="lionbyte.svg"
   inkscape:export-filename="C:\Users\mh817\Desktop\lionbyte-abstract-5.png"
   inkscape:export-xdpi="96"
   inkscape:export-ydpi="96"
   enable-background="new">
  <defs
     id="defs2">
    <inkscape:perspective
       sodipodi:type="inkscape:persp3d"
       inkscape:vp_x="0 : 198.4375 : 1"
       inkscape:vp_y="0 : 1000 : 0"
       inkscape:vp_z="396.87501 : 198.4375 : 1"
       inkscape:persp3d-origin="198.4375 : 132.29167 : 1"
       id="perspective4495" />
    <linearGradient
       id="linearGradient4489"
       osb:paint="solid">
      <stop
         style="stop-color:#aaebeb;stop-opacity:1;"
         offset="0"
         id="stop4487" />
    </linearGradient>
    <filter
       inkscape:collect="always"
       style="color-interpolation-filters:sRGB"
       id="filter4544">
      <feBlend
         inkscape:collect="always"
         mode="multiply"
         in2="BackgroundImage"
         id="feBlend4546" />
    </filter>
    <clipPath
       clipPathUnits="userSpaceOnUse"
       id="clipPath4611">
      <g
         style="display:inline"
         id="g4615"
         transform="matrix(1.1481503,0,0,1.1481503,-47.083726,216.53083)"
         inkscape:export-xdpi="96"
         inkscape:export-ydpi="96">
        <path
           style="opacity:1;fill:#ffd700;fill-opacity:1;stroke:#ff6347;stroke-width:5.74075127;stroke-miterlimit:4;stroke-dasharray:none;stroke-opacity:1"
           d="M 450.92773,2.8789062 C 377.03097,3.8600595 247.99266,83.169992 231.73047,143.86133 c -17.21662,64.2533 64.59608,209.75637 130.4082,237.30469 -22.0237,85.52123 -33.10354,195.76573 -33.24023,306.16992 -57.60906,12.15357 -103.95128,28.51079 -131.17774,49.08398 -56.02878,42.33718 -88.46289,145.79347 -97.30468,258.89453 a 241.23983,147.81575 0 0 0 -26.064458,66.80275 241.23983,147.81575 0 0 0 26.496098,67.0176 c 9.43111,111.0186 41.72228,211.9102 96.87304,253.584 9.17578,6.9335 20.72575,13.2075 34.28907,18.8671 9.42527,26.2449 22.45682,46.9932 39.10546,58.0059 76.74461,50.7649 465.92143,50.7649 542.66602,0 9.72891,-6.4355 18.22213,-16.1977 25.48437,-28.4336 102.89403,-11.2791 184.81678,-28.5743 213.76368,-48.4394 101.8293,-69.8816 331.0745,-232.1998 304.7969,-342.875 C 1287.2624,843.65721 1346.545,582.34266 1288.375,382.93945 1354.906,360.59337 1441.0752,209.6419 1423.4492,143.86133 1407.1871,83.169992 1278.1507,3.8600595 1204.2539,2.8789062 1196.6094,2.7773628 1189.5558,3.516938 1183.2773,5.1992188 1135.7894,17.923574 1076.9143,99.685952 1053.0703,170.06055 983.74723,154.1433 902.50872,146.18164 821.26562,146.18164 c -76.69215,0 -153.3817,7.09341 -220.04687,21.27734 C 576.82332,97.685413 518.80785,17.767006 471.9043,5.1992188 465.62587,3.516938 458.57222,2.7774061 450.92773,2.8789062 Z"
           transform="matrix(0.23044312,0,0,0.23044312,41.008331,-188.59101)"
           id="path4613"
           inkscape:connector-curvature="0" />
      </g>
    </clipPath>
  </defs>
  <sodipodi:namedview
     id="base"
     pagecolor="#ffffff"
     bordercolor="#666666"
     borderopacity="1.0"
     inkscape:pageopacity="0.0"
     inkscape:pageshadow="2"
     inkscape:zoom="0.64"
     inkscape:cx="-39.149147"
     inkscape:cy="404.89586"
     inkscape:document-units="px"
     inkscape:current-layer="layer1"
     showgrid="false"
     inkscape:window-width="1920"
     inkscape:window-height="1027"
     inkscape:window-x="-8"
     inkscape:window-y="-8"
     inkscape:window-maximized="1"
     units="px"
     fit-margin-top="0"
     fit-margin-left="0"
     fit-margin-right="0"
     fit-margin-bottom="0">
    <inkscape:grid
       type="xygrid"
       id="grid4493" />
  </sodipodi:namedview>
  <metadata
     id="metadata5">
    <rdf:RDF>
      <cc:Work
         rdf:about="">
        <dc:format>image/svg+xml</dc:format>
        <dc:type
           rdf:resource="http://purl.org/dc/dcmitype/StillImage" />
        <dc:title></dc:title>
      </cc:Work>
    </rdf:RDF>
  </metadata>
  <g
     inkscape:label="Layer 1"
     inkscape:groupmode="layer"
     id="layer1"
     transform="translate(-29.482143,211.75595)"
     style="display:inline">
    <g
       id="g6323"
       transform="matrix(1.1481503,0,0,1.1481503,-17.601584,4.774875)"
       inkscape:export-xdpi="96"
       inkscape:export-ydpi="96">
      <path
         id="path4630-3"
         d="m 144.92161,-187.92743 c -17.029,0.2261 -46.76517,18.50255 -50.512681,32.48845 -3.967451,14.80673 14.885961,48.33672 30.051911,54.68504 -5.07521,19.70778 -7.6285,45.112981 -7.66,70.554865 -13.27561,2.800707 -23.955011,6.569987 -30.22916,11.310937 -30.661534,23.1688558 -30.661535,125.766238 0,148.935088 30.66154,23.16888 175.84442,14.58696 197.10011,0 23.46587,-16.1037 76.29359,-53.508908 70.23809,-79.01326 -16.26094,-45.209827 -2.59932,-105.427776 -16.00419,-151.37887 15.33162,-5.1495 35.18855,-39.93512 31.12677,-55.0938 -3.7475,-13.9859 -33.48315,-32.26235 -50.51216,-32.48845 -1.76162,-0.0234 -3.38698,0.14666 -4.8338,0.53433 -10.94328,2.93224 -24.51072,21.77414 -30.00541,37.99148 -15.97503,-3.66802 -34.69601,-5.50302 -53.41792,-5.50302 -17.67318,0 -35.34549,1.63499 -50.70802,4.90358 -5.62176,-16.07884 -18.99113,-34.49588 -29.79973,-37.39204 -1.44682,-0.38767 -3.07219,-0.55772 -4.83381,-0.53433 z"
         style="opacity:1;fill:#ffd700;fill-opacity:1;stroke:#ff6347;stroke-width:1.32291663;stroke-miterlimit:4;stroke-dasharray:none;stroke-opacity:1"
         inkscape:connector-curvature="0" />
      <path
         transform="matrix(1.7335576,0,0,1.1467115,-90.814461,11.149533)"
         inkscape:transform-center-y="-6.5956661e-006"
         inkscape:transform-center-x="5.0114811e-006"
         d="m 184.21828,119.13401 c -10.20172,10.20172 -61.93531,10.20172 -72.13703,0 -10.20172,-10.20171 -10.20172,-61.93531 0,-72.137027 10.20172,-10.201716 61.93531,-10.201716 72.13703,0 10.20172,10.201717 10.20172,61.935317 0,72.137027 z"
         inkscape:randomized="0"
         inkscape:rounded="0.2"
         inkscape:flatsided="true"
         sodipodi:arg2="1.5707963"
         sodipodi:arg1="0.78539816"
         sodipodi:r2="36.068516"
         sodipodi:r1="51.008583"
         sodipodi:cy="83.065498"
         sodipodi:cx="148.14977"
         sodipodi:sides="4"
         id="path4599"
         style="opacity:1;fill:#febb3a;fill-opacity:1;stroke:#bc880b;stroke-width:0.93828821;stroke-miterlimit:4;stroke-dasharray:none;stroke-opacity:1"
         sodipodi:type="star" />
      <path
         inkscape:connector-curvature="0"
         id="path4523"
         d="m 113.73423,22.103106 a 55.592059,34.063123 0 0 0 -55.591904,34.063377 55.592059,34.063123 0 0 0 55.591904,34.063351 55.592059,34.063123 0 0 0 41.6941,-11.57629 55.592059,34.063123 0 0 0 41.69409,11.57629 55.592059,34.063123 0 0 0 55.59196,-34.063351 55.592059,34.063123 0 0 0 -55.59196,-34.063377 55.592059,34.063123 0 0 0 -41.69409,11.597215 55.592059,34.063123 0 0 0 -41.6941,-11.597215 z"
         style="opacity:1;fill:#e5911f;fill-opacity:1;stroke:#d2691e;stroke-width:1.40816081;stroke-miterlimit:4;stroke-dasharray:none;stroke-opacity:1" />
      <path
         transform="matrix(0.50740157,0.78406317,-0.87884531,0.45267908,89.878456,-92.254825)"
         inkscape:transform-center-y="9.2742884"
         inkscape:transform-center-x="-5.6760948e-006"
         d="m 133.18271,-38.668437 c 10.64565,0 40.80833,52.243289 35.4855,61.462693 -5.32283,9.219403 -65.64818,9.219402 -70.971004,-2e-6 -5.322825,-9.219404 24.839854,-61.462692 35.485504,-61.462691 z"
         inkscape:randomized="0"
         inkscape:rounded="0.15"
         inkscape:flatsided="true"
         sodipodi:arg2="-0.52359878"
         sodipodi:arg1="-1.5707963"
         sodipodi:r2="20.487564"
         sodipodi:r1="40.975128"
         sodipodi:cy="2.3066907"
         sodipodi:cx="133.18271"
         sodipodi:sides="3"
         id="path4521"
         style="opacity:1;fill:#ff4500;fill-opacity:1;stroke:#ff0000;stroke-width:1.38016617;stroke-miterlimit:4;stroke-dasharray:none;stroke-opacity:1"
         sodipodi:type="star" />
      <ellipse
         ry="37.15601"
         rx="23.906555"
         cy="-66.812233"
         cx="243.18936"
         id="path4546"
         style="opacity:1;fill:#dc143c;fill-opacity:1;stroke:#ffa500;stroke-width:1.15501845;stroke-miterlimit:4;stroke-dasharray:none;stroke-opacity:1" />
      <ellipse
         ry="37.15601"
         rx="23.906555"
         cy="-66.812233"
         cx="171.4697"
         id="path4546-4"
         style="opacity:1;fill:#dc143c;fill-opacity:1;stroke:#ffa500;stroke-width:1.15501845;stroke-miterlimit:4;stroke-dasharray:none;stroke-opacity:1" />
      <path
         inkscape:connector-curvature="0"
         id="path4707"
         d="m 119.52363,-166.72576 c -7.0019,4.16885 -13.13565,10.21826 -14.40661,15.76935 -1.14716,5.01031 0.81418,13.35979 4.17878,21.37782 -1.60645,-5.46122 -2.2607,-10.56985 -1.3839,-14.07692 2.76829,-11.07268 25.37184,-24.53057 34.96584,-20.81828 2.96549,1.14746 6.20643,4.52435 9.18788,8.96797 -3.86467,-7.54974 -8.71127,-13.95595 -12.92666,-15.70689 -4.74329,-1.97025 -12.61342,0.31809 -19.61533,4.48695 z"
         style="opacity:1;fill:#ff8c00;fill-opacity:1;stroke:none;stroke-width:1.29382932;stroke-miterlimit:4;stroke-dasharray:none;stroke-opacity:1" />
      <path
         inkscape:connector-curvature="0"
         id="path4707-1"
         d="m 332.96628,-170.64628 c 7.57229,4.45346 14.2057,10.56353 15.58021,15.78898 1.24061,4.71642 -0.88052,12.23724 -4.51919,19.32991 1.73731,-4.89091 2.44485,-9.54028 1.49662,-12.84808 -2.9938,-10.44355 -27.43869,-24.82022 -37.81425,-22.23953 -3.20706,0.79768 -6.71201,3.62526 -9.93635,7.45833 4.1795,-6.61748 9.42093,-12.09549 13.9797,-13.3398 5.12972,-1.40016 13.64096,1.39673 21.21326,5.85019 z"
         style="opacity:1;fill:#ff8c00;fill-opacity:1;stroke:none;stroke-width:1.29147184;stroke-miterlimit:4;stroke-dasharray:none;stroke-opacity:1" />
      <path
         inkscape:connector-curvature="0"
         id="path4740-3-8"
         d="m 157.54194,-122.04081 c 8.71523,-2.31615 18.63756,-2.13116 24.7946,1.87667 2.5736,1.67525 5.38033,4.60142 8.18637,8.28729 -15.54502,-6.36742 -40.65143,-7.39074 -48.68983,-0.97131 3.01041,-4.14422 9.00038,-7.40985 15.70885,-9.19267 z"
         style="opacity:1;fill:#ff0000;fill-opacity:1;stroke:#b22222;stroke-width:0.62283158;stroke-linejoin:round;stroke-miterlimit:4;stroke-dasharray:none;stroke-opacity:1;paint-order:normal" />
      <path
         inkscape:connector-curvature="0"
         id="path4740-3-1"
         d="m 257.50121,-121.62791 c -8.6145,-2.66649 -18.5362,-2.88267 -24.85018,0.87305 -2.63921,1.56987 -5.56191,4.38021 -8.51462,7.94966 15.78966,-5.73396 40.91692,-5.74175 48.6893,0.99731 -2.84046,-4.2625 -8.69355,-7.76755 -15.32449,-9.82004 z"
         style="opacity:1;fill:#ff0000;fill-opacity:1;stroke:#b22222;stroke-width:0.62283158;stroke-linejoin:round;stroke-miterlimit:4;stroke-dasharray:none;stroke-opacity:1;paint-order:normal" />
    </g>
  </g>
  <g
     inkscape:groupmode="layer"
     id="layer2"
     inkscape:label="Layer 2"
     style="display:inline;opacity:0.46200005;filter:url(#filter4544)"
     sodipodi:insensitive="true">
    <rect
       style="opacity:1;fill:#fecd6c;fill-opacity:1;stroke:none;stroke-width:0.66145867;stroke-linejoin:round;stroke-miterlimit:4;stroke-dasharray:none;stroke-opacity:1;paint-order:normal"
       id="rect4498"
       width="396.875"
       height="396.875"
       x="0"
       y="-5.6843419e-014"
       clip-path="url(#clipPath4611)"
       inkscape:export-xdpi="96"
       inkscape:export-ydpi="96" />
  </g>
</svg>
